<mxfile host="app.diagrams.net" modified="2023-06-14T03:08:02.200Z" agent="Mozilla/5.0 (Macintosh; Intel Mac OS X 10_15_7) AppleWebKit/537.36 (KHTML, like Gecko) Chrome/113.0.0.0 Safari/537.36" etag="Vi20UJhN27SfF_Ctj-hl" version="21.3.7" type="github" pages="6">
  <diagram name="Page-1" id="yjC24cWGDO6M0qd9VGKK">
    <mxGraphModel dx="826" dy="488" grid="0" gridSize="10" guides="1" tooltips="1" connect="1" arrows="1" fold="1" page="1" pageScale="1" pageWidth="827" pageHeight="1169" math="0" shadow="0">
      <root>
        <mxCell id="0" />
        <mxCell id="1" parent="0" />
        <mxCell id="A5MYgMg3VEzvYRa9z12O-17" value="" style="group" parent="1" vertex="1" connectable="0">
          <mxGeometry x="235" y="250" width="299" height="243" as="geometry" />
        </mxCell>
        <mxCell id="A5MYgMg3VEzvYRa9z12O-5" value="" style="swimlane;startSize=0;" parent="A5MYgMg3VEzvYRa9z12O-17" vertex="1">
          <mxGeometry x="176.25937834941053" width="122.7406216505895" height="243" as="geometry" />
        </mxCell>
        <mxCell id="A5MYgMg3VEzvYRa9z12O-7" value="Topic-1" style="whiteSpace=wrap;html=1;aspect=fixed;fillColor=#d5e8d4;strokeColor=#82b366;" parent="A5MYgMg3VEzvYRa9z12O-5" vertex="1">
          <mxGeometry x="-12.81886387995713" y="6.749999999999999" width="48.292096219931274" height="48.292096219931274" as="geometry" />
        </mxCell>
        <mxCell id="A5MYgMg3VEzvYRa9z12O-8" value="Topic-27" style="whiteSpace=wrap;html=1;aspect=fixed;fillColor=#d5e8d4;strokeColor=#82b366;" parent="A5MYgMg3VEzvYRa9z12O-5" vertex="1">
          <mxGeometry x="-12.81886387995713" y="182.25" width="48.292096219931274" height="48.292096219931274" as="geometry" />
        </mxCell>
        <mxCell id="A5MYgMg3VEzvYRa9z12O-9" value="Topic-15" style="whiteSpace=wrap;html=1;aspect=fixed;fillColor=#d5e8d4;strokeColor=#82b366;" parent="A5MYgMg3VEzvYRa9z12O-5" vertex="1">
          <mxGeometry x="-12.81886387995713" y="87.74999999999999" width="48.292096219931274" height="48.292096219931274" as="geometry" />
        </mxCell>
        <mxCell id="A5MYgMg3VEzvYRa9z12O-2" value="Preprocessed &lt;br&gt;Pulsar Cluster" style="outlineConnect=0;dashed=0;verticalLabelPosition=bottom;verticalAlign=top;align=center;html=1;shape=mxgraph.aws3.hdfs_cluster;fillColor=#F58534;gradientColor=none;" parent="A5MYgMg3VEzvYRa9z12O-5" vertex="1">
          <mxGeometry x="64.09431939978565" y="81" width="58.64630225080386" height="56.025" as="geometry" />
        </mxCell>
        <mxCell id="A5MYgMg3VEzvYRa9z12O-10" value="" style="shape=xor;whiteSpace=wrap;html=1;rotation=-180;fillColor=#dae8fc;strokeColor=#6c8ebf;" parent="A5MYgMg3VEzvYRa9z12O-17" vertex="1">
          <mxGeometry x="60.88960342979637" y="20.25" width="57.684887459807086" height="215.99999999999997" as="geometry" />
        </mxCell>
        <mxCell id="A5MYgMg3VEzvYRa9z12O-11" value="100K sites" style="endArrow=classic;html=1;rounded=0;entryX=0;entryY=0.5;entryDx=0;entryDy=0;" parent="A5MYgMg3VEzvYRa9z12O-17" target="A5MYgMg3VEzvYRa9z12O-7" edge="1">
          <mxGeometry width="50" height="50" relative="1" as="geometry">
            <mxPoint x="112.16505894962488" y="74.25" as="sourcePoint" />
            <mxPoint x="144.2122186495177" y="40.5" as="targetPoint" />
          </mxGeometry>
        </mxCell>
        <mxCell id="A5MYgMg3VEzvYRa9z12O-12" value="" style="endArrow=classic;html=1;rounded=0;" parent="A5MYgMg3VEzvYRa9z12O-17" edge="1">
          <mxGeometry width="50" height="50" relative="1" as="geometry">
            <mxPoint x="105.75562700964632" y="128.25" as="sourcePoint" />
            <mxPoint x="157.03108252947484" y="128.25" as="targetPoint" />
          </mxGeometry>
        </mxCell>
        <mxCell id="A5MYgMg3VEzvYRa9z12O-13" value="90K sites" style="edgeLabel;html=1;align=center;verticalAlign=middle;resizable=0;points=[];" parent="A5MYgMg3VEzvYRa9z12O-12" vertex="1" connectable="0">
          <mxGeometry x="0.125" y="1" relative="1" as="geometry">
            <mxPoint as="offset" />
          </mxGeometry>
        </mxCell>
        <mxCell id="A5MYgMg3VEzvYRa9z12O-14" value="Consistent &lt;br&gt;Hashing scheme" style="text;html=1;align=center;verticalAlign=middle;resizable=0;points=[];autosize=1;strokeColor=none;fillColor=none;" parent="A5MYgMg3VEzvYRa9z12O-17" vertex="1">
          <mxGeometry y="157.27499999999998" width="110" height="40" as="geometry" />
        </mxCell>
        <mxCell id="A5MYgMg3VEzvYRa9z12O-15" value="" style="endArrow=classic;html=1;rounded=0;entryX=0;entryY=0.75;entryDx=0;entryDy=0;" parent="A5MYgMg3VEzvYRa9z12O-17" target="A5MYgMg3VEzvYRa9z12O-8" edge="1">
          <mxGeometry width="50" height="50" relative="1" as="geometry">
            <mxPoint x="112.16505894962488" y="202.5" as="sourcePoint" />
            <mxPoint x="144.2122186495177" y="168.75" as="targetPoint" />
          </mxGeometry>
        </mxCell>
        <mxCell id="A5MYgMg3VEzvYRa9z12O-16" value="110K" style="edgeLabel;html=1;align=center;verticalAlign=middle;resizable=0;points=[];" parent="A5MYgMg3VEzvYRa9z12O-15" vertex="1" connectable="0">
          <mxGeometry x="-0.2521" relative="1" as="geometry">
            <mxPoint as="offset" />
          </mxGeometry>
        </mxCell>
        <mxCell id="A5MYgMg3VEzvYRa9z12O-19" value="" style="edgeStyle=orthogonalEdgeStyle;rounded=0;orthogonalLoop=1;jettySize=auto;html=1;" parent="1" source="A5MYgMg3VEzvYRa9z12O-18" target="A5MYgMg3VEzvYRa9z12O-10" edge="1">
          <mxGeometry relative="1" as="geometry" />
        </mxCell>
        <mxCell id="A5MYgMg3VEzvYRa9z12O-18" value="data-adapter" style="rounded=0;whiteSpace=wrap;html=1;fillColor=#e1d5e7;strokeColor=#9673a6;" parent="1" vertex="1">
          <mxGeometry x="136" y="330" width="120" height="60" as="geometry" />
        </mxCell>
      </root>
    </mxGraphModel>
  </diagram>
  <diagram id="c_z-QQvi-m6NqsxbBlPJ" name="Page-2">
    <mxGraphModel dx="826" dy="488" grid="0" gridSize="10" guides="1" tooltips="1" connect="1" arrows="1" fold="1" page="1" pageScale="1" pageWidth="827" pageHeight="1169" math="0" shadow="0">
      <root>
        <mxCell id="0" />
        <mxCell id="1" parent="0" />
        <mxCell id="JZrkIhoS4pEnRz0HpnA4-2" value="" style="swimlane;startSize=0;" parent="1" vertex="1">
          <mxGeometry x="411.25937834941055" y="250" width="142.03323233997415" height="243" as="geometry" />
        </mxCell>
        <mxCell id="JZrkIhoS4pEnRz0HpnA4-4" value="Topic-27" style="whiteSpace=wrap;html=1;aspect=fixed;fillColor=#d5e8d4;strokeColor=#82b366;" parent="JZrkIhoS4pEnRz0HpnA4-2" vertex="1">
          <mxGeometry x="93.74113612004287" y="176" width="48.292096219931274" height="48.292096219931274" as="geometry" />
        </mxCell>
        <mxCell id="JZrkIhoS4pEnRz0HpnA4-6" value="Preprocessed &lt;br&gt;Pulsar Cluster" style="outlineConnect=0;dashed=0;verticalLabelPosition=bottom;verticalAlign=top;align=center;html=1;shape=mxgraph.aws3.hdfs_cluster;fillColor=#F58534;gradientColor=none;" parent="JZrkIhoS4pEnRz0HpnA4-2" vertex="1">
          <mxGeometry x="4.744319399785645" y="79" width="58.64630225080386" height="56.025" as="geometry" />
        </mxCell>
        <mxCell id="JZrkIhoS4pEnRz0HpnA4-5" value="Topic-15" style="whiteSpace=wrap;html=1;aspect=fixed;fillColor=#d5e8d4;strokeColor=#82b366;" parent="JZrkIhoS4pEnRz0HpnA4-2" vertex="1">
          <mxGeometry x="93.74113612004288" y="103" width="48.292096219931274" height="48.292096219931274" as="geometry" />
        </mxCell>
        <mxCell id="JZrkIhoS4pEnRz0HpnA4-36" value="" style="edgeStyle=orthogonalEdgeStyle;rounded=0;orthogonalLoop=1;jettySize=auto;html=1;" parent="1" source="JZrkIhoS4pEnRz0HpnA4-3" target="JZrkIhoS4pEnRz0HpnA4-32" edge="1">
          <mxGeometry relative="1" as="geometry" />
        </mxCell>
        <mxCell id="JZrkIhoS4pEnRz0HpnA4-37" value="One to One &lt;br&gt;Mapping" style="edgeLabel;html=1;align=center;verticalAlign=middle;resizable=0;points=[];" parent="JZrkIhoS4pEnRz0HpnA4-36" vertex="1" connectable="0">
          <mxGeometry x="-0.3931" y="1" relative="1" as="geometry">
            <mxPoint as="offset" />
          </mxGeometry>
        </mxCell>
        <mxCell id="JZrkIhoS4pEnRz0HpnA4-3" value="Topic-1" style="whiteSpace=wrap;html=1;aspect=fixed;fillColor=#d5e8d4;strokeColor=#82b366;" parent="1" vertex="1">
          <mxGeometry x="505.00051446945344" y="264" width="48.292096219931274" height="48.292096219931274" as="geometry" />
        </mxCell>
        <mxCell id="JZrkIhoS4pEnRz0HpnA4-9" value="" style="endArrow=classic;html=1;rounded=0;entryX=0;entryY=0.5;entryDx=0;entryDy=0;" parent="1" target="JZrkIhoS4pEnRz0HpnA4-5" edge="1">
          <mxGeometry width="50" height="50" relative="1" as="geometry">
            <mxPoint x="341.75562700964633" y="378.25" as="sourcePoint" />
            <mxPoint x="393.0310825294748" y="378.25" as="targetPoint" />
          </mxGeometry>
        </mxCell>
        <mxCell id="JZrkIhoS4pEnRz0HpnA4-27" value="90K sites" style="edgeLabel;html=1;align=center;verticalAlign=middle;resizable=0;points=[];" parent="JZrkIhoS4pEnRz0HpnA4-9" vertex="1" connectable="0">
          <mxGeometry x="-0.3722" relative="1" as="geometry">
            <mxPoint as="offset" />
          </mxGeometry>
        </mxCell>
        <mxCell id="JZrkIhoS4pEnRz0HpnA4-12" value="" style="endArrow=classic;html=1;rounded=0;entryX=0;entryY=0.75;entryDx=0;entryDy=0;" parent="1" target="JZrkIhoS4pEnRz0HpnA4-4" edge="1">
          <mxGeometry width="50" height="50" relative="1" as="geometry">
            <mxPoint x="348.1650589496249" y="452.5" as="sourcePoint" />
            <mxPoint x="380.2122186495177" y="418.75" as="targetPoint" />
          </mxGeometry>
        </mxCell>
        <mxCell id="JZrkIhoS4pEnRz0HpnA4-13" value="110K" style="edgeLabel;html=1;align=center;verticalAlign=middle;resizable=0;points=[];" parent="JZrkIhoS4pEnRz0HpnA4-12" vertex="1" connectable="0">
          <mxGeometry x="-0.2521" relative="1" as="geometry">
            <mxPoint as="offset" />
          </mxGeometry>
        </mxCell>
        <mxCell id="JZrkIhoS4pEnRz0HpnA4-16" value="" style="group" parent="1" vertex="1" connectable="0">
          <mxGeometry x="236" y="270.25" width="118.57449088960345" height="216" as="geometry" />
        </mxCell>
        <mxCell id="JZrkIhoS4pEnRz0HpnA4-7" value="" style="shape=xor;whiteSpace=wrap;html=1;rotation=-180;fillColor=#dae8fc;strokeColor=#6c8ebf;" parent="JZrkIhoS4pEnRz0HpnA4-16" vertex="1">
          <mxGeometry x="60.88960342979635" width="57.684887459807086" height="215.99999999999997" as="geometry" />
        </mxCell>
        <mxCell id="JZrkIhoS4pEnRz0HpnA4-8" value="100K sites" style="endArrow=classic;html=1;rounded=0;entryX=0;entryY=0.5;entryDx=0;entryDy=0;" parent="JZrkIhoS4pEnRz0HpnA4-16" target="JZrkIhoS4pEnRz0HpnA4-3" edge="1">
          <mxGeometry width="50" height="50" relative="1" as="geometry">
            <mxPoint x="112.16505894962489" y="54" as="sourcePoint" />
            <mxPoint x="144.2122186495177" y="20.25" as="targetPoint" />
          </mxGeometry>
        </mxCell>
        <mxCell id="JZrkIhoS4pEnRz0HpnA4-11" value="Consistent &lt;br&gt;Hashing scheme" style="text;html=1;align=center;verticalAlign=middle;resizable=0;points=[];autosize=1;strokeColor=none;fillColor=none;" parent="JZrkIhoS4pEnRz0HpnA4-16" vertex="1">
          <mxGeometry y="137.02499999999998" width="110" height="40" as="geometry" />
        </mxCell>
        <mxCell id="JZrkIhoS4pEnRz0HpnA4-28" value="" style="swimlane;startSize=0;" parent="1" vertex="1">
          <mxGeometry x="697.9993783494106" y="248" width="149.29323233997408" height="243" as="geometry" />
        </mxCell>
        <mxCell id="JZrkIhoS4pEnRz0HpnA4-30" value="Processed &lt;br&gt;Pulsar Cluster" style="outlineConnect=0;dashed=0;verticalLabelPosition=bottom;verticalAlign=top;align=center;html=1;shape=mxgraph.aws3.hdfs_cluster;fillColor=#F58534;gradientColor=none;" parent="JZrkIhoS4pEnRz0HpnA4-28" vertex="1">
          <mxGeometry x="4.744319399785645" y="79" width="58.64630225080386" height="56.025" as="geometry" />
        </mxCell>
        <mxCell id="JZrkIhoS4pEnRz0HpnA4-32" value="Topic-1" style="whiteSpace=wrap;html=1;aspect=fixed;fillColor=#d5e8d4;strokeColor=#82b366;" parent="JZrkIhoS4pEnRz0HpnA4-28" vertex="1">
          <mxGeometry x="98.00113612004293" y="16" width="48.292096219931274" height="48.292096219931274" as="geometry" />
        </mxCell>
        <mxCell id="JZrkIhoS4pEnRz0HpnA4-31" value="Topic-15" style="whiteSpace=wrap;html=1;aspect=fixed;fillColor=#d5e8d4;strokeColor=#82b366;" parent="JZrkIhoS4pEnRz0HpnA4-28" vertex="1">
          <mxGeometry x="96.00113612004293" y="94" width="48.292096219931274" height="48.292096219931274" as="geometry" />
        </mxCell>
        <mxCell id="JZrkIhoS4pEnRz0HpnA4-29" value="Topic-27" style="whiteSpace=wrap;html=1;aspect=fixed;fillColor=#d5e8d4;strokeColor=#82b366;" parent="JZrkIhoS4pEnRz0HpnA4-28" vertex="1">
          <mxGeometry x="101.00113612004282" y="178" width="48.292096219931274" height="48.292096219931274" as="geometry" />
        </mxCell>
        <mxCell id="JZrkIhoS4pEnRz0HpnA4-38" value="" style="edgeStyle=orthogonalEdgeStyle;rounded=0;orthogonalLoop=1;jettySize=auto;html=1;" parent="1" source="JZrkIhoS4pEnRz0HpnA4-5" target="JZrkIhoS4pEnRz0HpnA4-31" edge="1">
          <mxGeometry relative="1" as="geometry" />
        </mxCell>
        <mxCell id="JZrkIhoS4pEnRz0HpnA4-39" value="One to One&amp;nbsp;&lt;br&gt;Mapping" style="edgeLabel;html=1;align=center;verticalAlign=middle;resizable=0;points=[];" parent="JZrkIhoS4pEnRz0HpnA4-38" vertex="1" connectable="0">
          <mxGeometry x="-0.5332" y="-2" relative="1" as="geometry">
            <mxPoint as="offset" />
          </mxGeometry>
        </mxCell>
        <mxCell id="JZrkIhoS4pEnRz0HpnA4-40" value="" style="edgeStyle=orthogonalEdgeStyle;rounded=0;orthogonalLoop=1;jettySize=auto;html=1;" parent="1" source="JZrkIhoS4pEnRz0HpnA4-4" target="JZrkIhoS4pEnRz0HpnA4-29" edge="1">
          <mxGeometry relative="1" as="geometry" />
        </mxCell>
        <mxCell id="JZrkIhoS4pEnRz0HpnA4-42" value="One to One&lt;br&gt;Mapping" style="edgeLabel;html=1;align=center;verticalAlign=middle;resizable=0;points=[];" parent="JZrkIhoS4pEnRz0HpnA4-40" vertex="1" connectable="0">
          <mxGeometry x="-0.3756" relative="1" as="geometry">
            <mxPoint as="offset" />
          </mxGeometry>
        </mxCell>
      </root>
    </mxGraphModel>
  </diagram>
  <diagram id="lXHj-CQqAiFEfWHUPsbO" name="Page-3">
    <mxGraphModel dx="826" dy="488" grid="0" gridSize="10" guides="1" tooltips="1" connect="1" arrows="1" fold="1" page="1" pageScale="1" pageWidth="827" pageHeight="1169" math="0" shadow="0">
      <root>
        <mxCell id="0" />
        <mxCell id="1" parent="0" />
        <mxCell id="C948ALTjv7Bl8B3ZrEso-1" value="" style="swimlane;startSize=0;" parent="1" vertex="1">
          <mxGeometry x="411.25937834941055" y="250" width="142.03323233997415" height="243" as="geometry" />
        </mxCell>
        <mxCell id="C948ALTjv7Bl8B3ZrEso-2" value="Topic-27" style="whiteSpace=wrap;html=1;aspect=fixed;fillColor=#d5e8d4;strokeColor=#82b366;" parent="C948ALTjv7Bl8B3ZrEso-1" vertex="1">
          <mxGeometry x="93.74113612004287" y="176" width="48.292096219931274" height="48.292096219931274" as="geometry" />
        </mxCell>
        <mxCell id="C948ALTjv7Bl8B3ZrEso-3" value="Preprocessed &lt;br&gt;Pulsar Cluster" style="outlineConnect=0;dashed=0;verticalLabelPosition=bottom;verticalAlign=top;align=center;html=1;shape=mxgraph.aws3.hdfs_cluster;fillColor=#F58534;gradientColor=none;" parent="C948ALTjv7Bl8B3ZrEso-1" vertex="1">
          <mxGeometry x="4.744319399785645" y="79" width="58.64630225080386" height="56.025" as="geometry" />
        </mxCell>
        <mxCell id="C948ALTjv7Bl8B3ZrEso-4" value="Topic-15" style="whiteSpace=wrap;html=1;aspect=fixed;fillColor=#d5e8d4;strokeColor=#82b366;" parent="C948ALTjv7Bl8B3ZrEso-1" vertex="1">
          <mxGeometry x="93.74113612004288" y="103" width="48.292096219931274" height="48.292096219931274" as="geometry" />
        </mxCell>
        <mxCell id="C948ALTjv7Bl8B3ZrEso-5" value="" style="edgeStyle=orthogonalEdgeStyle;rounded=0;orthogonalLoop=1;jettySize=auto;html=1;" parent="1" source="C948ALTjv7Bl8B3ZrEso-7" target="C948ALTjv7Bl8B3ZrEso-18" edge="1">
          <mxGeometry relative="1" as="geometry" />
        </mxCell>
        <mxCell id="C948ALTjv7Bl8B3ZrEso-6" value="One to One &lt;br&gt;Mapping" style="edgeLabel;html=1;align=center;verticalAlign=middle;resizable=0;points=[];" parent="C948ALTjv7Bl8B3ZrEso-5" vertex="1" connectable="0">
          <mxGeometry x="-0.3931" y="1" relative="1" as="geometry">
            <mxPoint as="offset" />
          </mxGeometry>
        </mxCell>
        <mxCell id="C948ALTjv7Bl8B3ZrEso-7" value="Topic-1" style="whiteSpace=wrap;html=1;aspect=fixed;fillColor=#d5e8d4;strokeColor=#82b366;" parent="1" vertex="1">
          <mxGeometry x="505.00051446945344" y="264" width="48.292096219931274" height="48.292096219931274" as="geometry" />
        </mxCell>
        <mxCell id="C948ALTjv7Bl8B3ZrEso-8" value="" style="endArrow=classic;html=1;rounded=0;entryX=0;entryY=0.5;entryDx=0;entryDy=0;" parent="1" target="C948ALTjv7Bl8B3ZrEso-4" edge="1">
          <mxGeometry width="50" height="50" relative="1" as="geometry">
            <mxPoint x="341.75562700964633" y="378.25" as="sourcePoint" />
            <mxPoint x="393.0310825294748" y="378.25" as="targetPoint" />
          </mxGeometry>
        </mxCell>
        <mxCell id="C948ALTjv7Bl8B3ZrEso-9" value="90K sites" style="edgeLabel;html=1;align=center;verticalAlign=middle;resizable=0;points=[];" parent="C948ALTjv7Bl8B3ZrEso-8" vertex="1" connectable="0">
          <mxGeometry x="-0.3722" relative="1" as="geometry">
            <mxPoint as="offset" />
          </mxGeometry>
        </mxCell>
        <mxCell id="C948ALTjv7Bl8B3ZrEso-10" value="" style="endArrow=classic;html=1;rounded=0;entryX=0;entryY=0.75;entryDx=0;entryDy=0;" parent="1" target="C948ALTjv7Bl8B3ZrEso-2" edge="1">
          <mxGeometry width="50" height="50" relative="1" as="geometry">
            <mxPoint x="348.1650589496249" y="452.5" as="sourcePoint" />
            <mxPoint x="380.2122186495177" y="418.75" as="targetPoint" />
          </mxGeometry>
        </mxCell>
        <mxCell id="C948ALTjv7Bl8B3ZrEso-11" value="110K" style="edgeLabel;html=1;align=center;verticalAlign=middle;resizable=0;points=[];" parent="C948ALTjv7Bl8B3ZrEso-10" vertex="1" connectable="0">
          <mxGeometry x="-0.2521" relative="1" as="geometry">
            <mxPoint as="offset" />
          </mxGeometry>
        </mxCell>
        <mxCell id="C948ALTjv7Bl8B3ZrEso-12" value="" style="group" parent="1" vertex="1" connectable="0">
          <mxGeometry x="236" y="270.25" width="118.57449088960345" height="216" as="geometry" />
        </mxCell>
        <mxCell id="C948ALTjv7Bl8B3ZrEso-13" value="" style="shape=xor;whiteSpace=wrap;html=1;rotation=-180;fillColor=#dae8fc;strokeColor=#6c8ebf;" parent="C948ALTjv7Bl8B3ZrEso-12" vertex="1">
          <mxGeometry x="60.88960342979635" width="57.684887459807086" height="215.99999999999997" as="geometry" />
        </mxCell>
        <mxCell id="C948ALTjv7Bl8B3ZrEso-14" value="100K sites" style="endArrow=classic;html=1;rounded=0;entryX=0;entryY=0.5;entryDx=0;entryDy=0;" parent="C948ALTjv7Bl8B3ZrEso-12" target="C948ALTjv7Bl8B3ZrEso-7" edge="1">
          <mxGeometry width="50" height="50" relative="1" as="geometry">
            <mxPoint x="112.16505894962489" y="54" as="sourcePoint" />
            <mxPoint x="144.2122186495177" y="20.25" as="targetPoint" />
          </mxGeometry>
        </mxCell>
        <mxCell id="C948ALTjv7Bl8B3ZrEso-15" value="Consistent &lt;br&gt;Hashing scheme" style="text;html=1;align=center;verticalAlign=middle;resizable=0;points=[];autosize=1;strokeColor=none;fillColor=none;" parent="C948ALTjv7Bl8B3ZrEso-12" vertex="1">
          <mxGeometry y="137.02499999999998" width="110" height="40" as="geometry" />
        </mxCell>
        <mxCell id="C948ALTjv7Bl8B3ZrEso-16" value="" style="swimlane;startSize=0;" parent="1" vertex="1">
          <mxGeometry x="697.9993783494106" y="248" width="149.29323233997408" height="243" as="geometry" />
        </mxCell>
        <mxCell id="C948ALTjv7Bl8B3ZrEso-17" value="Processed &lt;br&gt;Pulsar Cluster" style="outlineConnect=0;dashed=0;verticalLabelPosition=bottom;verticalAlign=top;align=center;html=1;shape=mxgraph.aws3.hdfs_cluster;fillColor=#F58534;gradientColor=none;" parent="C948ALTjv7Bl8B3ZrEso-16" vertex="1">
          <mxGeometry x="4.744319399785645" y="79" width="58.64630225080386" height="56.025" as="geometry" />
        </mxCell>
        <mxCell id="C948ALTjv7Bl8B3ZrEso-18" value="Topic-1" style="whiteSpace=wrap;html=1;aspect=fixed;fillColor=#d5e8d4;strokeColor=#82b366;" parent="C948ALTjv7Bl8B3ZrEso-16" vertex="1">
          <mxGeometry x="98.00113612004293" y="16" width="48.292096219931274" height="48.292096219931274" as="geometry" />
        </mxCell>
        <mxCell id="C948ALTjv7Bl8B3ZrEso-19" value="Topic-15" style="whiteSpace=wrap;html=1;aspect=fixed;fillColor=#d5e8d4;strokeColor=#82b366;" parent="C948ALTjv7Bl8B3ZrEso-16" vertex="1">
          <mxGeometry x="96.00113612004293" y="94" width="48.292096219931274" height="48.292096219931274" as="geometry" />
        </mxCell>
        <mxCell id="C948ALTjv7Bl8B3ZrEso-20" value="Topic-27" style="whiteSpace=wrap;html=1;aspect=fixed;fillColor=#d5e8d4;strokeColor=#82b366;" parent="C948ALTjv7Bl8B3ZrEso-16" vertex="1">
          <mxGeometry x="101.00113612004282" y="178" width="48.292096219931274" height="48.292096219931274" as="geometry" />
        </mxCell>
        <mxCell id="C948ALTjv7Bl8B3ZrEso-21" value="" style="edgeStyle=orthogonalEdgeStyle;rounded=0;orthogonalLoop=1;jettySize=auto;html=1;" parent="1" source="C948ALTjv7Bl8B3ZrEso-4" target="C948ALTjv7Bl8B3ZrEso-19" edge="1">
          <mxGeometry relative="1" as="geometry" />
        </mxCell>
        <mxCell id="C948ALTjv7Bl8B3ZrEso-22" value="One to One&amp;nbsp;&lt;br&gt;Mapping" style="edgeLabel;html=1;align=center;verticalAlign=middle;resizable=0;points=[];" parent="C948ALTjv7Bl8B3ZrEso-21" vertex="1" connectable="0">
          <mxGeometry x="-0.5332" y="-2" relative="1" as="geometry">
            <mxPoint as="offset" />
          </mxGeometry>
        </mxCell>
        <mxCell id="C948ALTjv7Bl8B3ZrEso-23" value="" style="edgeStyle=orthogonalEdgeStyle;rounded=0;orthogonalLoop=1;jettySize=auto;html=1;" parent="1" source="C948ALTjv7Bl8B3ZrEso-2" target="C948ALTjv7Bl8B3ZrEso-20" edge="1">
          <mxGeometry relative="1" as="geometry" />
        </mxCell>
        <mxCell id="C948ALTjv7Bl8B3ZrEso-24" value="One to One&lt;br&gt;Mapping" style="edgeLabel;html=1;align=center;verticalAlign=middle;resizable=0;points=[];" parent="C948ALTjv7Bl8B3ZrEso-23" vertex="1" connectable="0">
          <mxGeometry x="-0.3756" relative="1" as="geometry">
            <mxPoint as="offset" />
          </mxGeometry>
        </mxCell>
        <mxCell id="C948ALTjv7Bl8B3ZrEso-25" value="Timescale DB-1" style="image;aspect=fixed;perimeter=ellipsePerimeter;html=1;align=center;shadow=0;dashed=0;spacingTop=3;image=img/lib/active_directory/database_partition_3.svg;" parent="1" vertex="1">
          <mxGeometry x="976" y="250" width="50" height="37" as="geometry" />
        </mxCell>
        <mxCell id="C948ALTjv7Bl8B3ZrEso-26" value="Timescale DB-15" style="image;aspect=fixed;perimeter=ellipsePerimeter;html=1;align=center;shadow=0;dashed=0;spacingTop=3;image=img/lib/active_directory/database_partition_3.svg;" parent="1" vertex="1">
          <mxGeometry x="973" y="347.65" width="50" height="37" as="geometry" />
        </mxCell>
        <mxCell id="C948ALTjv7Bl8B3ZrEso-27" value="Timescale DB-27" style="image;aspect=fixed;perimeter=ellipsePerimeter;html=1;align=center;shadow=0;dashed=0;spacingTop=3;image=img/lib/active_directory/database_partition_3.svg;" parent="1" vertex="1">
          <mxGeometry x="976" y="440" width="50" height="37" as="geometry" />
        </mxCell>
        <mxCell id="C948ALTjv7Bl8B3ZrEso-28" value="" style="edgeStyle=orthogonalEdgeStyle;rounded=0;orthogonalLoop=1;jettySize=auto;html=1;" parent="1" source="C948ALTjv7Bl8B3ZrEso-18" target="C948ALTjv7Bl8B3ZrEso-25" edge="1">
          <mxGeometry relative="1" as="geometry" />
        </mxCell>
        <mxCell id="C948ALTjv7Bl8B3ZrEso-29" value="One to One&lt;br&gt;Mapping" style="edgeLabel;html=1;align=center;verticalAlign=middle;resizable=0;points=[];" parent="C948ALTjv7Bl8B3ZrEso-28" vertex="1" connectable="0">
          <mxGeometry x="-0.1933" y="-2" relative="1" as="geometry">
            <mxPoint as="offset" />
          </mxGeometry>
        </mxCell>
        <mxCell id="C948ALTjv7Bl8B3ZrEso-30" value="" style="edgeStyle=orthogonalEdgeStyle;rounded=0;orthogonalLoop=1;jettySize=auto;html=1;" parent="1" source="C948ALTjv7Bl8B3ZrEso-19" target="C948ALTjv7Bl8B3ZrEso-26" edge="1">
          <mxGeometry relative="1" as="geometry" />
        </mxCell>
        <mxCell id="C948ALTjv7Bl8B3ZrEso-31" value="One to One&lt;br&gt;Mapping" style="edgeLabel;html=1;align=center;verticalAlign=middle;resizable=0;points=[];" parent="C948ALTjv7Bl8B3ZrEso-30" vertex="1" connectable="0">
          <mxGeometry x="-0.2088" relative="1" as="geometry">
            <mxPoint as="offset" />
          </mxGeometry>
        </mxCell>
        <mxCell id="C948ALTjv7Bl8B3ZrEso-32" value="" style="edgeStyle=orthogonalEdgeStyle;rounded=0;orthogonalLoop=1;jettySize=auto;html=1;" parent="1" source="C948ALTjv7Bl8B3ZrEso-20" target="C948ALTjv7Bl8B3ZrEso-27" edge="1">
          <mxGeometry relative="1" as="geometry" />
        </mxCell>
        <mxCell id="C948ALTjv7Bl8B3ZrEso-34" value="One to One&lt;br&gt;Mapping" style="edgeLabel;html=1;align=center;verticalAlign=middle;resizable=0;points=[];" parent="C948ALTjv7Bl8B3ZrEso-32" vertex="1" connectable="0">
          <mxGeometry x="-0.1284" relative="1" as="geometry">
            <mxPoint as="offset" />
          </mxGeometry>
        </mxCell>
      </root>
    </mxGraphModel>
  </diagram>
  <diagram id="aErgqS82NGzxnQs6AclN" name="Page-4">
    <mxGraphModel dx="826" dy="488" grid="0" gridSize="10" guides="1" tooltips="1" connect="1" arrows="1" fold="1" page="1" pageScale="1" pageWidth="827" pageHeight="1169" math="0" shadow="0">
      <root>
        <mxCell id="0" />
        <mxCell id="1" parent="0" />
        <mxCell id="Oxibw1SAAgSo2_b8VPAG-1" value="" style="swimlane;startSize=0;" parent="1" vertex="1">
          <mxGeometry x="411.25937834941055" y="250" width="142.03323233997415" height="243" as="geometry" />
        </mxCell>
        <mxCell id="Oxibw1SAAgSo2_b8VPAG-2" value="Topic-27" style="whiteSpace=wrap;html=1;aspect=fixed;fillColor=#d5e8d4;strokeColor=#82b366;" parent="Oxibw1SAAgSo2_b8VPAG-1" vertex="1">
          <mxGeometry x="93.74113612004287" y="176" width="48.292096219931274" height="48.292096219931274" as="geometry" />
        </mxCell>
        <mxCell id="Oxibw1SAAgSo2_b8VPAG-3" value="Preprocessed &lt;br&gt;Pulsar Cluster" style="outlineConnect=0;dashed=0;verticalLabelPosition=bottom;verticalAlign=top;align=center;html=1;shape=mxgraph.aws3.hdfs_cluster;fillColor=#F58534;gradientColor=none;" parent="Oxibw1SAAgSo2_b8VPAG-1" vertex="1">
          <mxGeometry x="4.744319399785645" y="79" width="58.64630225080386" height="56.025" as="geometry" />
        </mxCell>
        <mxCell id="Oxibw1SAAgSo2_b8VPAG-4" value="Topic-15" style="whiteSpace=wrap;html=1;aspect=fixed;fillColor=#d5e8d4;strokeColor=#82b366;" parent="Oxibw1SAAgSo2_b8VPAG-1" vertex="1">
          <mxGeometry x="93.74113612004288" y="103" width="48.292096219931274" height="48.292096219931274" as="geometry" />
        </mxCell>
        <mxCell id="Oxibw1SAAgSo2_b8VPAG-5" value="" style="edgeStyle=orthogonalEdgeStyle;rounded=0;orthogonalLoop=1;jettySize=auto;html=1;" parent="1" source="Oxibw1SAAgSo2_b8VPAG-7" target="Oxibw1SAAgSo2_b8VPAG-18" edge="1">
          <mxGeometry relative="1" as="geometry" />
        </mxCell>
        <mxCell id="Oxibw1SAAgSo2_b8VPAG-6" value="One to One &lt;br&gt;Mapping" style="edgeLabel;html=1;align=center;verticalAlign=middle;resizable=0;points=[];" parent="Oxibw1SAAgSo2_b8VPAG-5" vertex="1" connectable="0">
          <mxGeometry x="-0.3931" y="1" relative="1" as="geometry">
            <mxPoint as="offset" />
          </mxGeometry>
        </mxCell>
        <mxCell id="Oxibw1SAAgSo2_b8VPAG-7" value="Topic-1" style="whiteSpace=wrap;html=1;aspect=fixed;fillColor=#d5e8d4;strokeColor=#82b366;" parent="1" vertex="1">
          <mxGeometry x="505.00051446945344" y="264" width="48.292096219931274" height="48.292096219931274" as="geometry" />
        </mxCell>
        <mxCell id="Oxibw1SAAgSo2_b8VPAG-8" value="" style="endArrow=classic;html=1;rounded=0;entryX=0;entryY=0.5;entryDx=0;entryDy=0;" parent="1" target="Oxibw1SAAgSo2_b8VPAG-4" edge="1">
          <mxGeometry width="50" height="50" relative="1" as="geometry">
            <mxPoint x="341.75562700964633" y="378.25" as="sourcePoint" />
            <mxPoint x="393.0310825294748" y="378.25" as="targetPoint" />
          </mxGeometry>
        </mxCell>
        <mxCell id="Oxibw1SAAgSo2_b8VPAG-9" value="200K sites" style="edgeLabel;html=1;align=center;verticalAlign=middle;resizable=0;points=[];" parent="Oxibw1SAAgSo2_b8VPAG-8" vertex="1" connectable="0">
          <mxGeometry x="-0.3722" relative="1" as="geometry">
            <mxPoint as="offset" />
          </mxGeometry>
        </mxCell>
        <mxCell id="Oxibw1SAAgSo2_b8VPAG-10" value="" style="endArrow=classic;html=1;rounded=0;entryX=0;entryY=0.75;entryDx=0;entryDy=0;" parent="1" target="Oxibw1SAAgSo2_b8VPAG-2" edge="1">
          <mxGeometry width="50" height="50" relative="1" as="geometry">
            <mxPoint x="348.1650589496249" y="452.5" as="sourcePoint" />
            <mxPoint x="380.2122186495177" y="418.75" as="targetPoint" />
          </mxGeometry>
        </mxCell>
        <mxCell id="Oxibw1SAAgSo2_b8VPAG-11" value="110K Sites" style="edgeLabel;html=1;align=center;verticalAlign=middle;resizable=0;points=[];" parent="Oxibw1SAAgSo2_b8VPAG-10" vertex="1" connectable="0">
          <mxGeometry x="-0.2521" relative="1" as="geometry">
            <mxPoint as="offset" />
          </mxGeometry>
        </mxCell>
        <mxCell id="Oxibw1SAAgSo2_b8VPAG-12" value="" style="group" parent="1" vertex="1" connectable="0">
          <mxGeometry x="236" y="270.25" width="118.57449088960345" height="216" as="geometry" />
        </mxCell>
        <mxCell id="Oxibw1SAAgSo2_b8VPAG-13" value="" style="shape=xor;whiteSpace=wrap;html=1;rotation=-180;fillColor=#dae8fc;strokeColor=#6c8ebf;" parent="Oxibw1SAAgSo2_b8VPAG-12" vertex="1">
          <mxGeometry x="60.88960342979635" width="57.684887459807086" height="215.99999999999997" as="geometry" />
        </mxCell>
        <mxCell id="Oxibw1SAAgSo2_b8VPAG-14" value="100K sites" style="endArrow=classic;html=1;rounded=0;entryX=0;entryY=0.5;entryDx=0;entryDy=0;" parent="Oxibw1SAAgSo2_b8VPAG-12" target="Oxibw1SAAgSo2_b8VPAG-7" edge="1">
          <mxGeometry width="50" height="50" relative="1" as="geometry">
            <mxPoint x="112.16505894962489" y="54" as="sourcePoint" />
            <mxPoint x="144.2122186495177" y="20.25" as="targetPoint" />
          </mxGeometry>
        </mxCell>
        <mxCell id="Oxibw1SAAgSo2_b8VPAG-15" value="Consistent &lt;br&gt;Hashing scheme" style="text;html=1;align=center;verticalAlign=middle;resizable=0;points=[];autosize=1;strokeColor=none;fillColor=none;" parent="Oxibw1SAAgSo2_b8VPAG-12" vertex="1">
          <mxGeometry y="137.02499999999998" width="110" height="40" as="geometry" />
        </mxCell>
        <mxCell id="Oxibw1SAAgSo2_b8VPAG-16" value="" style="swimlane;startSize=0;" parent="1" vertex="1">
          <mxGeometry x="697.9993783494106" y="248" width="149.29323233997408" height="243" as="geometry" />
        </mxCell>
        <mxCell id="Oxibw1SAAgSo2_b8VPAG-17" value="Processed &lt;br&gt;Pulsar Cluster" style="outlineConnect=0;dashed=0;verticalLabelPosition=bottom;verticalAlign=top;align=center;html=1;shape=mxgraph.aws3.hdfs_cluster;fillColor=#F58534;gradientColor=none;" parent="Oxibw1SAAgSo2_b8VPAG-16" vertex="1">
          <mxGeometry x="4.744319399785645" y="79" width="58.64630225080386" height="56.025" as="geometry" />
        </mxCell>
        <mxCell id="Oxibw1SAAgSo2_b8VPAG-18" value="Topic-1" style="whiteSpace=wrap;html=1;aspect=fixed;fillColor=#d5e8d4;strokeColor=#82b366;" parent="Oxibw1SAAgSo2_b8VPAG-16" vertex="1">
          <mxGeometry x="98.00113612004293" y="16" width="48.292096219931274" height="48.292096219931274" as="geometry" />
        </mxCell>
        <mxCell id="Oxibw1SAAgSo2_b8VPAG-19" value="Topic-15" style="whiteSpace=wrap;html=1;aspect=fixed;fillColor=#d5e8d4;strokeColor=#82b366;" parent="Oxibw1SAAgSo2_b8VPAG-16" vertex="1">
          <mxGeometry x="96.00113612004293" y="94" width="48.292096219931274" height="48.292096219931274" as="geometry" />
        </mxCell>
        <mxCell id="Oxibw1SAAgSo2_b8VPAG-20" value="Topic-27" style="whiteSpace=wrap;html=1;aspect=fixed;fillColor=#d5e8d4;strokeColor=#82b366;" parent="Oxibw1SAAgSo2_b8VPAG-16" vertex="1">
          <mxGeometry x="101.00113612004282" y="178" width="48.292096219931274" height="48.292096219931274" as="geometry" />
        </mxCell>
        <mxCell id="Oxibw1SAAgSo2_b8VPAG-21" value="" style="edgeStyle=orthogonalEdgeStyle;rounded=0;orthogonalLoop=1;jettySize=auto;html=1;" parent="1" source="Oxibw1SAAgSo2_b8VPAG-4" target="Oxibw1SAAgSo2_b8VPAG-19" edge="1">
          <mxGeometry relative="1" as="geometry" />
        </mxCell>
        <mxCell id="Oxibw1SAAgSo2_b8VPAG-22" value="One to One&amp;nbsp;&lt;br&gt;Mapping" style="edgeLabel;html=1;align=center;verticalAlign=middle;resizable=0;points=[];" parent="Oxibw1SAAgSo2_b8VPAG-21" vertex="1" connectable="0">
          <mxGeometry x="-0.5332" y="-2" relative="1" as="geometry">
            <mxPoint as="offset" />
          </mxGeometry>
        </mxCell>
        <mxCell id="Oxibw1SAAgSo2_b8VPAG-23" value="" style="edgeStyle=orthogonalEdgeStyle;rounded=0;orthogonalLoop=1;jettySize=auto;html=1;" parent="1" source="Oxibw1SAAgSo2_b8VPAG-2" target="Oxibw1SAAgSo2_b8VPAG-20" edge="1">
          <mxGeometry relative="1" as="geometry" />
        </mxCell>
        <mxCell id="Oxibw1SAAgSo2_b8VPAG-24" value="One to One&lt;br&gt;Mapping" style="edgeLabel;html=1;align=center;verticalAlign=middle;resizable=0;points=[];" parent="Oxibw1SAAgSo2_b8VPAG-23" vertex="1" connectable="0">
          <mxGeometry x="-0.3756" relative="1" as="geometry">
            <mxPoint as="offset" />
          </mxGeometry>
        </mxCell>
        <mxCell id="Oxibw1SAAgSo2_b8VPAG-25" value="Timescale DB-1" style="image;aspect=fixed;perimeter=ellipsePerimeter;html=1;align=center;shadow=0;dashed=0;spacingTop=3;image=img/lib/active_directory/database_partition_3.svg;" parent="1" vertex="1">
          <mxGeometry x="976" y="250" width="50" height="37" as="geometry" />
        </mxCell>
        <mxCell id="Oxibw1SAAgSo2_b8VPAG-26" value="Timescale DB-15" style="image;aspect=fixed;perimeter=ellipsePerimeter;html=1;align=center;shadow=0;dashed=0;spacingTop=3;image=img/lib/active_directory/database_partition_3.svg;" parent="1" vertex="1">
          <mxGeometry x="973" y="347.65" width="50" height="37" as="geometry" />
        </mxCell>
        <mxCell id="Oxibw1SAAgSo2_b8VPAG-27" value="Timescale DB-27" style="image;aspect=fixed;perimeter=ellipsePerimeter;html=1;align=center;shadow=0;dashed=0;spacingTop=3;image=img/lib/active_directory/database_partition_3.svg;" parent="1" vertex="1">
          <mxGeometry x="976" y="440" width="50" height="37" as="geometry" />
        </mxCell>
        <mxCell id="Oxibw1SAAgSo2_b8VPAG-28" value="" style="edgeStyle=orthogonalEdgeStyle;rounded=0;orthogonalLoop=1;jettySize=auto;html=1;" parent="1" source="Oxibw1SAAgSo2_b8VPAG-18" target="Oxibw1SAAgSo2_b8VPAG-25" edge="1">
          <mxGeometry relative="1" as="geometry" />
        </mxCell>
        <mxCell id="Oxibw1SAAgSo2_b8VPAG-29" value="One to One&lt;br&gt;Mapping" style="edgeLabel;html=1;align=center;verticalAlign=middle;resizable=0;points=[];" parent="Oxibw1SAAgSo2_b8VPAG-28" vertex="1" connectable="0">
          <mxGeometry x="-0.1933" y="-2" relative="1" as="geometry">
            <mxPoint as="offset" />
          </mxGeometry>
        </mxCell>
        <mxCell id="Oxibw1SAAgSo2_b8VPAG-30" value="" style="edgeStyle=orthogonalEdgeStyle;rounded=0;orthogonalLoop=1;jettySize=auto;html=1;" parent="1" source="Oxibw1SAAgSo2_b8VPAG-19" target="Oxibw1SAAgSo2_b8VPAG-26" edge="1">
          <mxGeometry relative="1" as="geometry" />
        </mxCell>
        <mxCell id="Oxibw1SAAgSo2_b8VPAG-31" value="One to One&lt;br&gt;Mapping" style="edgeLabel;html=1;align=center;verticalAlign=middle;resizable=0;points=[];" parent="Oxibw1SAAgSo2_b8VPAG-30" vertex="1" connectable="0">
          <mxGeometry x="-0.2088" relative="1" as="geometry">
            <mxPoint as="offset" />
          </mxGeometry>
        </mxCell>
        <mxCell id="Oxibw1SAAgSo2_b8VPAG-32" value="" style="edgeStyle=orthogonalEdgeStyle;rounded=0;orthogonalLoop=1;jettySize=auto;html=1;" parent="1" source="Oxibw1SAAgSo2_b8VPAG-20" target="Oxibw1SAAgSo2_b8VPAG-27" edge="1">
          <mxGeometry relative="1" as="geometry" />
        </mxCell>
        <mxCell id="Oxibw1SAAgSo2_b8VPAG-33" value="One to One&lt;br&gt;Mapping" style="edgeLabel;html=1;align=center;verticalAlign=middle;resizable=0;points=[];" parent="Oxibw1SAAgSo2_b8VPAG-32" vertex="1" connectable="0">
          <mxGeometry x="-0.1284" relative="1" as="geometry">
            <mxPoint as="offset" />
          </mxGeometry>
        </mxCell>
      </root>
    </mxGraphModel>
  </diagram>
  <diagram id="AHqdE6JZdvK3fQhiI6lU" name="Page-5">
    <mxGraphModel dx="826" dy="488" grid="0" gridSize="10" guides="1" tooltips="1" connect="1" arrows="1" fold="1" page="1" pageScale="1" pageWidth="827" pageHeight="1169" math="0" shadow="0">
      <root>
        <mxCell id="0" />
        <mxCell id="1" parent="0" />
        <mxCell id="zgvDV0tPu_YmPtIkiGBZ-1" value="" style="swimlane;startSize=0;" parent="1" vertex="1">
          <mxGeometry x="411.26" y="250" width="142.0332323399742" height="315" as="geometry" />
        </mxCell>
        <mxCell id="zgvDV0tPu_YmPtIkiGBZ-2" value="Topic-28" style="whiteSpace=wrap;html=1;aspect=fixed;fillColor=#d5e8d4;strokeColor=#82b366;" parent="zgvDV0tPu_YmPtIkiGBZ-1" vertex="1">
          <mxGeometry x="93.74113612004287" y="176" width="48.292096219931274" height="48.292096219931274" as="geometry" />
        </mxCell>
        <mxCell id="zgvDV0tPu_YmPtIkiGBZ-3" value="Preprocessed &lt;br&gt;Pulsar Cluster" style="outlineConnect=0;dashed=0;verticalLabelPosition=bottom;verticalAlign=top;align=center;html=1;shape=mxgraph.aws3.hdfs_cluster;fillColor=#F58534;gradientColor=none;" parent="zgvDV0tPu_YmPtIkiGBZ-1" vertex="1">
          <mxGeometry x="4.744319399785645" y="79" width="58.64630225080386" height="56.025" as="geometry" />
        </mxCell>
        <mxCell id="zgvDV0tPu_YmPtIkiGBZ-4" value="Topic-15" style="whiteSpace=wrap;html=1;aspect=fixed;fillColor=#d5e8d4;strokeColor=#82b366;" parent="zgvDV0tPu_YmPtIkiGBZ-1" vertex="1">
          <mxGeometry x="93.74113612004288" y="103" width="48.292096219931274" height="48.292096219931274" as="geometry" />
        </mxCell>
        <mxCell id="zgvDV0tPu_YmPtIkiGBZ-34" value="Topic-27" style="whiteSpace=wrap;html=1;aspect=fixed;fillColor=#d5e8d4;strokeColor=#82b366;" parent="zgvDV0tPu_YmPtIkiGBZ-1" vertex="1">
          <mxGeometry x="93.74113612004294" y="257" width="48.292096219931274" height="48.292096219931274" as="geometry" />
        </mxCell>
        <mxCell id="zgvDV0tPu_YmPtIkiGBZ-42" value="" style="endArrow=classic;html=1;rounded=0;entryX=0;entryY=0.75;entryDx=0;entryDy=0;" parent="zgvDV0tPu_YmPtIkiGBZ-1" edge="1">
          <mxGeometry width="50" height="50" relative="1" as="geometry">
            <mxPoint x="-65.26494105037511" y="257" as="sourcePoint" />
            <mxPoint x="91.57" y="266.5" as="targetPoint" />
          </mxGeometry>
        </mxCell>
        <mxCell id="zgvDV0tPu_YmPtIkiGBZ-43" value="110K Sites" style="edgeLabel;html=1;align=center;verticalAlign=middle;resizable=0;points=[];" parent="zgvDV0tPu_YmPtIkiGBZ-42" vertex="1" connectable="0">
          <mxGeometry x="-0.2521" relative="1" as="geometry">
            <mxPoint as="offset" />
          </mxGeometry>
        </mxCell>
        <mxCell id="zgvDV0tPu_YmPtIkiGBZ-5" value="" style="edgeStyle=orthogonalEdgeStyle;rounded=0;orthogonalLoop=1;jettySize=auto;html=1;" parent="1" source="zgvDV0tPu_YmPtIkiGBZ-7" target="zgvDV0tPu_YmPtIkiGBZ-18" edge="1">
          <mxGeometry relative="1" as="geometry" />
        </mxCell>
        <mxCell id="zgvDV0tPu_YmPtIkiGBZ-6" value="One to One &lt;br&gt;Mapping" style="edgeLabel;html=1;align=center;verticalAlign=middle;resizable=0;points=[];" parent="zgvDV0tPu_YmPtIkiGBZ-5" vertex="1" connectable="0">
          <mxGeometry x="-0.3931" y="1" relative="1" as="geometry">
            <mxPoint as="offset" />
          </mxGeometry>
        </mxCell>
        <mxCell id="zgvDV0tPu_YmPtIkiGBZ-7" value="Topic-1" style="whiteSpace=wrap;html=1;aspect=fixed;fillColor=#d5e8d4;strokeColor=#82b366;" parent="1" vertex="1">
          <mxGeometry x="505.00051446945344" y="264" width="48.292096219931274" height="48.292096219931274" as="geometry" />
        </mxCell>
        <mxCell id="zgvDV0tPu_YmPtIkiGBZ-8" value="" style="endArrow=classic;html=1;rounded=0;entryX=0;entryY=0.5;entryDx=0;entryDy=0;" parent="1" target="zgvDV0tPu_YmPtIkiGBZ-4" edge="1">
          <mxGeometry width="50" height="50" relative="1" as="geometry">
            <mxPoint x="341.75562700964633" y="378.25" as="sourcePoint" />
            <mxPoint x="393.0310825294748" y="378.25" as="targetPoint" />
          </mxGeometry>
        </mxCell>
        <mxCell id="zgvDV0tPu_YmPtIkiGBZ-9" value="100K sites" style="edgeLabel;html=1;align=center;verticalAlign=middle;resizable=0;points=[];" parent="zgvDV0tPu_YmPtIkiGBZ-8" vertex="1" connectable="0">
          <mxGeometry x="-0.3722" relative="1" as="geometry">
            <mxPoint as="offset" />
          </mxGeometry>
        </mxCell>
        <mxCell id="zgvDV0tPu_YmPtIkiGBZ-10" value="" style="endArrow=classic;html=1;rounded=0;entryX=0;entryY=0.75;entryDx=0;entryDy=0;" parent="1" target="zgvDV0tPu_YmPtIkiGBZ-2" edge="1">
          <mxGeometry width="50" height="50" relative="1" as="geometry">
            <mxPoint x="348.1650589496249" y="452.5" as="sourcePoint" />
            <mxPoint x="380.2122186495177" y="418.75" as="targetPoint" />
          </mxGeometry>
        </mxCell>
        <mxCell id="zgvDV0tPu_YmPtIkiGBZ-11" value="100K Sites" style="edgeLabel;html=1;align=center;verticalAlign=middle;resizable=0;points=[];" parent="zgvDV0tPu_YmPtIkiGBZ-10" vertex="1" connectable="0">
          <mxGeometry x="-0.2521" relative="1" as="geometry">
            <mxPoint as="offset" />
          </mxGeometry>
        </mxCell>
        <mxCell id="zgvDV0tPu_YmPtIkiGBZ-16" value="" style="swimlane;startSize=0;" parent="1" vertex="1">
          <mxGeometry x="698" y="248" width="149.29323233997408" height="317" as="geometry" />
        </mxCell>
        <mxCell id="zgvDV0tPu_YmPtIkiGBZ-17" value="Processed &lt;br&gt;Pulsar Cluster" style="outlineConnect=0;dashed=0;verticalLabelPosition=bottom;verticalAlign=top;align=center;html=1;shape=mxgraph.aws3.hdfs_cluster;fillColor=#F58534;gradientColor=none;" parent="zgvDV0tPu_YmPtIkiGBZ-16" vertex="1">
          <mxGeometry x="4.744319399785645" y="79" width="58.64630225080386" height="56.025" as="geometry" />
        </mxCell>
        <mxCell id="zgvDV0tPu_YmPtIkiGBZ-18" value="Topic-1" style="whiteSpace=wrap;html=1;aspect=fixed;fillColor=#d5e8d4;strokeColor=#82b366;" parent="zgvDV0tPu_YmPtIkiGBZ-16" vertex="1">
          <mxGeometry x="98.00113612004293" y="16" width="48.292096219931274" height="48.292096219931274" as="geometry" />
        </mxCell>
        <mxCell id="zgvDV0tPu_YmPtIkiGBZ-19" value="Topic-15" style="whiteSpace=wrap;html=1;aspect=fixed;fillColor=#d5e8d4;strokeColor=#82b366;" parent="zgvDV0tPu_YmPtIkiGBZ-16" vertex="1">
          <mxGeometry x="96.00113612004293" y="94" width="48.292096219931274" height="48.292096219931274" as="geometry" />
        </mxCell>
        <mxCell id="zgvDV0tPu_YmPtIkiGBZ-20" value="Topic-28" style="whiteSpace=wrap;html=1;aspect=fixed;fillColor=#d5e8d4;strokeColor=#82b366;" parent="zgvDV0tPu_YmPtIkiGBZ-16" vertex="1">
          <mxGeometry x="101.00113612004282" y="178" width="48.292096219931274" height="48.292096219931274" as="geometry" />
        </mxCell>
        <mxCell id="zgvDV0tPu_YmPtIkiGBZ-35" value="Topic-27" style="whiteSpace=wrap;html=1;aspect=fixed;fillColor=#d5e8d4;strokeColor=#82b366;" parent="zgvDV0tPu_YmPtIkiGBZ-16" vertex="1">
          <mxGeometry x="101.00113612004282" y="259" width="48.292096219931274" height="48.292096219931274" as="geometry" />
        </mxCell>
        <mxCell id="zgvDV0tPu_YmPtIkiGBZ-21" value="" style="edgeStyle=orthogonalEdgeStyle;rounded=0;orthogonalLoop=1;jettySize=auto;html=1;" parent="1" source="zgvDV0tPu_YmPtIkiGBZ-4" target="zgvDV0tPu_YmPtIkiGBZ-19" edge="1">
          <mxGeometry relative="1" as="geometry" />
        </mxCell>
        <mxCell id="zgvDV0tPu_YmPtIkiGBZ-22" value="One to One&amp;nbsp;&lt;br&gt;Mapping" style="edgeLabel;html=1;align=center;verticalAlign=middle;resizable=0;points=[];" parent="zgvDV0tPu_YmPtIkiGBZ-21" vertex="1" connectable="0">
          <mxGeometry x="-0.5332" y="-2" relative="1" as="geometry">
            <mxPoint as="offset" />
          </mxGeometry>
        </mxCell>
        <mxCell id="zgvDV0tPu_YmPtIkiGBZ-23" value="" style="edgeStyle=orthogonalEdgeStyle;rounded=0;orthogonalLoop=1;jettySize=auto;html=1;" parent="1" source="zgvDV0tPu_YmPtIkiGBZ-2" target="zgvDV0tPu_YmPtIkiGBZ-20" edge="1">
          <mxGeometry relative="1" as="geometry" />
        </mxCell>
        <mxCell id="zgvDV0tPu_YmPtIkiGBZ-24" value="One to One&lt;br&gt;Mapping" style="edgeLabel;html=1;align=center;verticalAlign=middle;resizable=0;points=[];" parent="zgvDV0tPu_YmPtIkiGBZ-23" vertex="1" connectable="0">
          <mxGeometry x="-0.3756" relative="1" as="geometry">
            <mxPoint as="offset" />
          </mxGeometry>
        </mxCell>
        <mxCell id="zgvDV0tPu_YmPtIkiGBZ-25" value="Timescale DB-1" style="image;aspect=fixed;perimeter=ellipsePerimeter;html=1;align=center;shadow=0;dashed=0;spacingTop=3;image=img/lib/active_directory/database_partition_3.svg;" parent="1" vertex="1">
          <mxGeometry x="976" y="250" width="50" height="37" as="geometry" />
        </mxCell>
        <mxCell id="zgvDV0tPu_YmPtIkiGBZ-26" value="Timescale DB-15" style="image;aspect=fixed;perimeter=ellipsePerimeter;html=1;align=center;shadow=0;dashed=0;spacingTop=3;image=img/lib/active_directory/database_partition_3.svg;" parent="1" vertex="1">
          <mxGeometry x="973" y="347.65" width="50" height="37" as="geometry" />
        </mxCell>
        <mxCell id="zgvDV0tPu_YmPtIkiGBZ-27" value="Timescale DB-28" style="image;aspect=fixed;perimeter=ellipsePerimeter;html=1;align=center;shadow=0;dashed=0;spacingTop=3;image=img/lib/active_directory/database_partition_3.svg;" parent="1" vertex="1">
          <mxGeometry x="976" y="440" width="50" height="37" as="geometry" />
        </mxCell>
        <mxCell id="zgvDV0tPu_YmPtIkiGBZ-28" value="" style="edgeStyle=orthogonalEdgeStyle;rounded=0;orthogonalLoop=1;jettySize=auto;html=1;" parent="1" source="zgvDV0tPu_YmPtIkiGBZ-18" target="zgvDV0tPu_YmPtIkiGBZ-25" edge="1">
          <mxGeometry relative="1" as="geometry" />
        </mxCell>
        <mxCell id="zgvDV0tPu_YmPtIkiGBZ-29" value="One to One&lt;br&gt;Mapping" style="edgeLabel;html=1;align=center;verticalAlign=middle;resizable=0;points=[];" parent="zgvDV0tPu_YmPtIkiGBZ-28" vertex="1" connectable="0">
          <mxGeometry x="-0.1933" y="-2" relative="1" as="geometry">
            <mxPoint as="offset" />
          </mxGeometry>
        </mxCell>
        <mxCell id="zgvDV0tPu_YmPtIkiGBZ-30" value="" style="edgeStyle=orthogonalEdgeStyle;rounded=0;orthogonalLoop=1;jettySize=auto;html=1;" parent="1" source="zgvDV0tPu_YmPtIkiGBZ-19" target="zgvDV0tPu_YmPtIkiGBZ-26" edge="1">
          <mxGeometry relative="1" as="geometry" />
        </mxCell>
        <mxCell id="zgvDV0tPu_YmPtIkiGBZ-31" value="One to One&lt;br&gt;Mapping" style="edgeLabel;html=1;align=center;verticalAlign=middle;resizable=0;points=[];" parent="zgvDV0tPu_YmPtIkiGBZ-30" vertex="1" connectable="0">
          <mxGeometry x="-0.2088" relative="1" as="geometry">
            <mxPoint as="offset" />
          </mxGeometry>
        </mxCell>
        <mxCell id="zgvDV0tPu_YmPtIkiGBZ-32" value="" style="edgeStyle=orthogonalEdgeStyle;rounded=0;orthogonalLoop=1;jettySize=auto;html=1;" parent="1" source="zgvDV0tPu_YmPtIkiGBZ-20" target="zgvDV0tPu_YmPtIkiGBZ-27" edge="1">
          <mxGeometry relative="1" as="geometry" />
        </mxCell>
        <mxCell id="zgvDV0tPu_YmPtIkiGBZ-33" value="One to One&lt;br&gt;Mapping" style="edgeLabel;html=1;align=center;verticalAlign=middle;resizable=0;points=[];" parent="zgvDV0tPu_YmPtIkiGBZ-32" vertex="1" connectable="0">
          <mxGeometry x="-0.1284" relative="1" as="geometry">
            <mxPoint as="offset" />
          </mxGeometry>
        </mxCell>
        <mxCell id="zgvDV0tPu_YmPtIkiGBZ-36" value="Timescale DB-27" style="image;aspect=fixed;perimeter=ellipsePerimeter;html=1;align=center;shadow=0;dashed=0;spacingTop=3;image=img/lib/active_directory/database_partition_3.svg;" parent="1" vertex="1">
          <mxGeometry x="976" y="528" width="50" height="37" as="geometry" />
        </mxCell>
        <mxCell id="zgvDV0tPu_YmPtIkiGBZ-37" value="" style="edgeStyle=orthogonalEdgeStyle;rounded=0;orthogonalLoop=1;jettySize=auto;html=1;" parent="1" source="zgvDV0tPu_YmPtIkiGBZ-35" target="zgvDV0tPu_YmPtIkiGBZ-36" edge="1">
          <mxGeometry relative="1" as="geometry" />
        </mxCell>
        <mxCell id="zgvDV0tPu_YmPtIkiGBZ-38" value="One to One&lt;br&gt;Mapping" style="edgeLabel;html=1;align=center;verticalAlign=middle;resizable=0;points=[];" parent="zgvDV0tPu_YmPtIkiGBZ-37" vertex="1" connectable="0">
          <mxGeometry x="-0.3239" y="-1" relative="1" as="geometry">
            <mxPoint as="offset" />
          </mxGeometry>
        </mxCell>
        <mxCell id="zgvDV0tPu_YmPtIkiGBZ-39" value="" style="edgeStyle=orthogonalEdgeStyle;rounded=0;orthogonalLoop=1;jettySize=auto;html=1;" parent="1" source="zgvDV0tPu_YmPtIkiGBZ-34" target="zgvDV0tPu_YmPtIkiGBZ-35" edge="1">
          <mxGeometry relative="1" as="geometry" />
        </mxCell>
        <mxCell id="zgvDV0tPu_YmPtIkiGBZ-40" value="One to One&lt;br&gt;Mapping" style="edgeLabel;html=1;align=center;verticalAlign=middle;resizable=0;points=[];" parent="zgvDV0tPu_YmPtIkiGBZ-39" vertex="1" connectable="0">
          <mxGeometry x="-0.4" y="2" relative="1" as="geometry">
            <mxPoint as="offset" />
          </mxGeometry>
        </mxCell>
        <mxCell id="zgvDV0tPu_YmPtIkiGBZ-13" value="" style="shape=xor;whiteSpace=wrap;html=1;rotation=-180;fillColor=#dae8fc;strokeColor=#6c8ebf;" parent="1" vertex="1">
          <mxGeometry x="296.89" y="270.25" width="57.68" height="296.25" as="geometry" />
        </mxCell>
        <mxCell id="zgvDV0tPu_YmPtIkiGBZ-14" value="100K sites" style="endArrow=classic;html=1;rounded=0;entryX=0;entryY=0.5;entryDx=0;entryDy=0;" parent="1" target="zgvDV0tPu_YmPtIkiGBZ-7" edge="1">
          <mxGeometry width="50" height="50" relative="1" as="geometry">
            <mxPoint x="348.1650589496249" y="324.25" as="sourcePoint" />
            <mxPoint x="380.2122186495177" y="290.5" as="targetPoint" />
          </mxGeometry>
        </mxCell>
        <mxCell id="zgvDV0tPu_YmPtIkiGBZ-15" value="Consistent &lt;br&gt;Hashing scheme" style="text;html=1;align=center;verticalAlign=middle;resizable=0;points=[];autosize=1;strokeColor=none;fillColor=none;" parent="1" vertex="1">
          <mxGeometry x="236" y="407.275" width="110" height="40" as="geometry" />
        </mxCell>
      </root>
    </mxGraphModel>
  </diagram>
  <diagram id="AcvysOam0NBOyXTsBbsY" name="Page-6">
    <mxGraphModel dx="826" dy="488" grid="0" gridSize="10" guides="1" tooltips="1" connect="1" arrows="1" fold="1" page="1" pageScale="1" pageWidth="827" pageHeight="1169" math="0" shadow="0">
      <root>
        <mxCell id="0" />
        <mxCell id="1" parent="0" />
        <mxCell id="zwFslJPwcFYUZ2XvNW6z-1" value="" style="swimlane;startSize=0;" parent="1" vertex="1">
          <mxGeometry x="411.26" y="250" width="142.0332323399742" height="315" as="geometry" />
        </mxCell>
        <mxCell id="zwFslJPwcFYUZ2XvNW6z-2" value="Topic-27" style="whiteSpace=wrap;html=1;aspect=fixed;fillColor=#d5e8d4;strokeColor=#82b366;" parent="zwFslJPwcFYUZ2XvNW6z-1" vertex="1">
          <mxGeometry x="93.74113612004287" y="176" width="48.292096219931274" height="48.292096219931274" as="geometry" />
        </mxCell>
        <mxCell id="zwFslJPwcFYUZ2XvNW6z-3" value="Preprocessed &lt;br&gt;Pulsar Cluster" style="outlineConnect=0;dashed=0;verticalLabelPosition=bottom;verticalAlign=top;align=center;html=1;shape=mxgraph.aws3.hdfs_cluster;fillColor=#F58534;gradientColor=none;" parent="zwFslJPwcFYUZ2XvNW6z-1" vertex="1">
          <mxGeometry x="4.744319399785645" y="79" width="58.64630225080386" height="56.025" as="geometry" />
        </mxCell>
        <mxCell id="zwFslJPwcFYUZ2XvNW6z-4" value="Topic-15" style="whiteSpace=wrap;html=1;aspect=fixed;fillColor=#d5e8d4;strokeColor=#82b366;" parent="zwFslJPwcFYUZ2XvNW6z-1" vertex="1">
          <mxGeometry x="93.74113612004288" y="103" width="48.292096219931274" height="48.292096219931274" as="geometry" />
        </mxCell>
        <mxCell id="zwFslJPwcFYUZ2XvNW6z-5" value="Topic-28" style="whiteSpace=wrap;html=1;aspect=fixed;fillColor=#d5e8d4;strokeColor=#82b366;" parent="zwFslJPwcFYUZ2XvNW6z-1" vertex="1">
          <mxGeometry x="93.74113612004294" y="257" width="48.292096219931274" height="48.292096219931274" as="geometry" />
        </mxCell>
        <mxCell id="zwFslJPwcFYUZ2XvNW6z-6" value="" style="endArrow=classic;html=1;rounded=0;entryX=0;entryY=0.75;entryDx=0;entryDy=0;" parent="zwFslJPwcFYUZ2XvNW6z-1" edge="1">
          <mxGeometry width="50" height="50" relative="1" as="geometry">
            <mxPoint x="-65.26494105037511" y="257" as="sourcePoint" />
            <mxPoint x="91.57" y="266.5" as="targetPoint" />
          </mxGeometry>
        </mxCell>
        <mxCell id="zwFslJPwcFYUZ2XvNW6z-7" value="110K Sites" style="edgeLabel;html=1;align=center;verticalAlign=middle;resizable=0;points=[];" parent="zwFslJPwcFYUZ2XvNW6z-6" vertex="1" connectable="0">
          <mxGeometry x="-0.2521" relative="1" as="geometry">
            <mxPoint as="offset" />
          </mxGeometry>
        </mxCell>
        <mxCell id="zwFslJPwcFYUZ2XvNW6z-8" value="" style="edgeStyle=orthogonalEdgeStyle;rounded=0;orthogonalLoop=1;jettySize=auto;html=1;" parent="1" source="zwFslJPwcFYUZ2XvNW6z-10" target="zwFslJPwcFYUZ2XvNW6z-17" edge="1">
          <mxGeometry relative="1" as="geometry" />
        </mxCell>
        <mxCell id="zwFslJPwcFYUZ2XvNW6z-9" value="One to One &lt;br&gt;Mapping" style="edgeLabel;html=1;align=center;verticalAlign=middle;resizable=0;points=[];" parent="zwFslJPwcFYUZ2XvNW6z-8" vertex="1" connectable="0">
          <mxGeometry x="-0.3931" y="1" relative="1" as="geometry">
            <mxPoint as="offset" />
          </mxGeometry>
        </mxCell>
        <mxCell id="zwFslJPwcFYUZ2XvNW6z-10" value="Topic-1" style="whiteSpace=wrap;html=1;aspect=fixed;fillColor=#d5e8d4;strokeColor=#82b366;" parent="1" vertex="1">
          <mxGeometry x="505.00051446945344" y="264" width="48.292096219931274" height="48.292096219931274" as="geometry" />
        </mxCell>
        <mxCell id="zwFslJPwcFYUZ2XvNW6z-11" value="" style="endArrow=classic;html=1;rounded=0;entryX=0;entryY=0.5;entryDx=0;entryDy=0;" parent="1" target="zwFslJPwcFYUZ2XvNW6z-4" edge="1">
          <mxGeometry width="50" height="50" relative="1" as="geometry">
            <mxPoint x="341.75562700964633" y="378.25" as="sourcePoint" />
            <mxPoint x="393.0310825294748" y="378.25" as="targetPoint" />
          </mxGeometry>
        </mxCell>
        <mxCell id="zwFslJPwcFYUZ2XvNW6z-12" value="100K sites" style="edgeLabel;html=1;align=center;verticalAlign=middle;resizable=0;points=[];" parent="zwFslJPwcFYUZ2XvNW6z-11" vertex="1" connectable="0">
          <mxGeometry x="-0.3722" relative="1" as="geometry">
            <mxPoint as="offset" />
          </mxGeometry>
        </mxCell>
        <mxCell id="zwFslJPwcFYUZ2XvNW6z-13" value="" style="endArrow=classic;html=1;rounded=0;entryX=0;entryY=0.75;entryDx=0;entryDy=0;" parent="1" target="zwFslJPwcFYUZ2XvNW6z-2" edge="1">
          <mxGeometry width="50" height="50" relative="1" as="geometry">
            <mxPoint x="348.1650589496249" y="452.5" as="sourcePoint" />
            <mxPoint x="380.2122186495177" y="418.75" as="targetPoint" />
          </mxGeometry>
        </mxCell>
        <mxCell id="zwFslJPwcFYUZ2XvNW6z-14" value="100K Sites" style="edgeLabel;html=1;align=center;verticalAlign=middle;resizable=0;points=[];" parent="zwFslJPwcFYUZ2XvNW6z-13" vertex="1" connectable="0">
          <mxGeometry x="-0.2521" relative="1" as="geometry">
            <mxPoint as="offset" />
          </mxGeometry>
        </mxCell>
        <mxCell id="zwFslJPwcFYUZ2XvNW6z-15" value="" style="swimlane;startSize=0;" parent="1" vertex="1">
          <mxGeometry x="698" y="248" width="149.29323233997408" height="317" as="geometry" />
        </mxCell>
        <mxCell id="zwFslJPwcFYUZ2XvNW6z-16" value="Processed &lt;br&gt;Pulsar Cluster" style="outlineConnect=0;dashed=0;verticalLabelPosition=bottom;verticalAlign=top;align=center;html=1;shape=mxgraph.aws3.hdfs_cluster;fillColor=#F58534;gradientColor=none;" parent="zwFslJPwcFYUZ2XvNW6z-15" vertex="1">
          <mxGeometry x="4.744319399785645" y="79" width="58.64630225080386" height="56.025" as="geometry" />
        </mxCell>
        <mxCell id="zwFslJPwcFYUZ2XvNW6z-17" value="Topic-1" style="whiteSpace=wrap;html=1;aspect=fixed;fillColor=#d5e8d4;strokeColor=#82b366;" parent="zwFslJPwcFYUZ2XvNW6z-15" vertex="1">
          <mxGeometry x="98.00113612004293" y="16" width="48.292096219931274" height="48.292096219931274" as="geometry" />
        </mxCell>
        <mxCell id="zwFslJPwcFYUZ2XvNW6z-18" value="Topic-15" style="whiteSpace=wrap;html=1;aspect=fixed;fillColor=#d5e8d4;strokeColor=#82b366;" parent="zwFslJPwcFYUZ2XvNW6z-15" vertex="1">
          <mxGeometry x="96.00113612004293" y="94" width="48.292096219931274" height="48.292096219931274" as="geometry" />
        </mxCell>
        <mxCell id="zwFslJPwcFYUZ2XvNW6z-19" value="Topic-27" style="whiteSpace=wrap;html=1;aspect=fixed;fillColor=#d5e8d4;strokeColor=#82b366;" parent="zwFslJPwcFYUZ2XvNW6z-15" vertex="1">
          <mxGeometry x="101.00113612004282" y="178" width="48.292096219931274" height="48.292096219931274" as="geometry" />
        </mxCell>
        <mxCell id="zwFslJPwcFYUZ2XvNW6z-20" value="Topic-28" style="whiteSpace=wrap;html=1;aspect=fixed;fillColor=#d5e8d4;strokeColor=#82b366;" parent="zwFslJPwcFYUZ2XvNW6z-15" vertex="1">
          <mxGeometry x="101.00113612004282" y="259" width="48.292096219931274" height="48.292096219931274" as="geometry" />
        </mxCell>
        <mxCell id="zwFslJPwcFYUZ2XvNW6z-21" value="" style="edgeStyle=orthogonalEdgeStyle;rounded=0;orthogonalLoop=1;jettySize=auto;html=1;" parent="1" source="zwFslJPwcFYUZ2XvNW6z-4" target="zwFslJPwcFYUZ2XvNW6z-18" edge="1">
          <mxGeometry relative="1" as="geometry" />
        </mxCell>
        <mxCell id="zwFslJPwcFYUZ2XvNW6z-22" value="One to One&amp;nbsp;&lt;br&gt;Mapping" style="edgeLabel;html=1;align=center;verticalAlign=middle;resizable=0;points=[];" parent="zwFslJPwcFYUZ2XvNW6z-21" vertex="1" connectable="0">
          <mxGeometry x="-0.5332" y="-2" relative="1" as="geometry">
            <mxPoint as="offset" />
          </mxGeometry>
        </mxCell>
        <mxCell id="zwFslJPwcFYUZ2XvNW6z-23" value="" style="edgeStyle=orthogonalEdgeStyle;rounded=0;orthogonalLoop=1;jettySize=auto;html=1;" parent="1" source="zwFslJPwcFYUZ2XvNW6z-2" target="zwFslJPwcFYUZ2XvNW6z-19" edge="1">
          <mxGeometry relative="1" as="geometry" />
        </mxCell>
        <mxCell id="zwFslJPwcFYUZ2XvNW6z-24" value="One to One&lt;br&gt;Mapping" style="edgeLabel;html=1;align=center;verticalAlign=middle;resizable=0;points=[];" parent="zwFslJPwcFYUZ2XvNW6z-23" vertex="1" connectable="0">
          <mxGeometry x="-0.3756" relative="1" as="geometry">
            <mxPoint as="offset" />
          </mxGeometry>
        </mxCell>
        <mxCell id="zwFslJPwcFYUZ2XvNW6z-25" value="Timescale DB-1" style="image;aspect=fixed;perimeter=ellipsePerimeter;html=1;align=center;shadow=0;dashed=0;spacingTop=3;image=img/lib/active_directory/database_partition_3.svg;" parent="1" vertex="1">
          <mxGeometry x="976" y="250" width="50" height="37" as="geometry" />
        </mxCell>
        <mxCell id="zwFslJPwcFYUZ2XvNW6z-26" value="Timescale DB-15" style="image;aspect=fixed;perimeter=ellipsePerimeter;html=1;align=center;shadow=0;dashed=0;spacingTop=3;image=img/lib/active_directory/database_partition_3.svg;" parent="1" vertex="1">
          <mxGeometry x="973" y="347.65" width="50" height="37" as="geometry" />
        </mxCell>
        <mxCell id="zwFslJPwcFYUZ2XvNW6z-27" value="Timescale DB-27" style="image;aspect=fixed;perimeter=ellipsePerimeter;html=1;align=center;shadow=0;dashed=0;spacingTop=3;image=img/lib/active_directory/database_partition_3.svg;" parent="1" vertex="1">
          <mxGeometry x="976" y="440" width="50" height="37" as="geometry" />
        </mxCell>
        <mxCell id="zwFslJPwcFYUZ2XvNW6z-28" value="" style="edgeStyle=orthogonalEdgeStyle;rounded=0;orthogonalLoop=1;jettySize=auto;html=1;" parent="1" source="zwFslJPwcFYUZ2XvNW6z-17" target="zwFslJPwcFYUZ2XvNW6z-25" edge="1">
          <mxGeometry relative="1" as="geometry" />
        </mxCell>
        <mxCell id="zwFslJPwcFYUZ2XvNW6z-29" value="One to One&lt;br&gt;Mapping" style="edgeLabel;html=1;align=center;verticalAlign=middle;resizable=0;points=[];" parent="zwFslJPwcFYUZ2XvNW6z-28" vertex="1" connectable="0">
          <mxGeometry x="-0.1933" y="-2" relative="1" as="geometry">
            <mxPoint as="offset" />
          </mxGeometry>
        </mxCell>
        <mxCell id="zwFslJPwcFYUZ2XvNW6z-30" value="" style="edgeStyle=orthogonalEdgeStyle;rounded=0;orthogonalLoop=1;jettySize=auto;html=1;" parent="1" source="zwFslJPwcFYUZ2XvNW6z-18" target="zwFslJPwcFYUZ2XvNW6z-26" edge="1">
          <mxGeometry relative="1" as="geometry" />
        </mxCell>
        <mxCell id="zwFslJPwcFYUZ2XvNW6z-31" value="One to One&lt;br&gt;Mapping" style="edgeLabel;html=1;align=center;verticalAlign=middle;resizable=0;points=[];" parent="zwFslJPwcFYUZ2XvNW6z-30" vertex="1" connectable="0">
          <mxGeometry x="-0.2088" relative="1" as="geometry">
            <mxPoint as="offset" />
          </mxGeometry>
        </mxCell>
        <mxCell id="zwFslJPwcFYUZ2XvNW6z-32" value="" style="edgeStyle=orthogonalEdgeStyle;rounded=0;orthogonalLoop=1;jettySize=auto;html=1;" parent="1" source="zwFslJPwcFYUZ2XvNW6z-19" target="zwFslJPwcFYUZ2XvNW6z-27" edge="1">
          <mxGeometry relative="1" as="geometry" />
        </mxCell>
        <mxCell id="zwFslJPwcFYUZ2XvNW6z-33" value="One to One&lt;br&gt;Mapping" style="edgeLabel;html=1;align=center;verticalAlign=middle;resizable=0;points=[];" parent="zwFslJPwcFYUZ2XvNW6z-32" vertex="1" connectable="0">
          <mxGeometry x="-0.1284" relative="1" as="geometry">
            <mxPoint as="offset" />
          </mxGeometry>
        </mxCell>
        <mxCell id="zwFslJPwcFYUZ2XvNW6z-34" value="Timescale DB-28" style="image;aspect=fixed;perimeter=ellipsePerimeter;html=1;align=center;shadow=0;dashed=0;spacingTop=3;image=img/lib/active_directory/database_partition_3.svg;" parent="1" vertex="1">
          <mxGeometry x="976" y="528" width="50" height="37" as="geometry" />
        </mxCell>
        <mxCell id="zwFslJPwcFYUZ2XvNW6z-35" value="" style="edgeStyle=orthogonalEdgeStyle;rounded=0;orthogonalLoop=1;jettySize=auto;html=1;" parent="1" source="zwFslJPwcFYUZ2XvNW6z-20" target="zwFslJPwcFYUZ2XvNW6z-34" edge="1">
          <mxGeometry relative="1" as="geometry" />
        </mxCell>
        <mxCell id="zwFslJPwcFYUZ2XvNW6z-36" value="One to One&lt;br&gt;Mapping" style="edgeLabel;html=1;align=center;verticalAlign=middle;resizable=0;points=[];" parent="zwFslJPwcFYUZ2XvNW6z-35" vertex="1" connectable="0">
          <mxGeometry x="-0.3239" y="-1" relative="1" as="geometry">
            <mxPoint as="offset" />
          </mxGeometry>
        </mxCell>
        <mxCell id="zwFslJPwcFYUZ2XvNW6z-37" value="" style="edgeStyle=orthogonalEdgeStyle;rounded=0;orthogonalLoop=1;jettySize=auto;html=1;" parent="1" source="zwFslJPwcFYUZ2XvNW6z-5" target="zwFslJPwcFYUZ2XvNW6z-20" edge="1">
          <mxGeometry relative="1" as="geometry" />
        </mxCell>
        <mxCell id="zwFslJPwcFYUZ2XvNW6z-38" value="One to One&lt;br&gt;Mapping" style="edgeLabel;html=1;align=center;verticalAlign=middle;resizable=0;points=[];" parent="zwFslJPwcFYUZ2XvNW6z-37" vertex="1" connectable="0">
          <mxGeometry x="-0.4" y="2" relative="1" as="geometry">
            <mxPoint as="offset" />
          </mxGeometry>
        </mxCell>
        <mxCell id="zwFslJPwcFYUZ2XvNW6z-39" value="" style="shape=xor;whiteSpace=wrap;html=1;rotation=-180;fillColor=#dae8fc;strokeColor=#6c8ebf;" parent="1" vertex="1">
          <mxGeometry x="296.89" y="270.25" width="57.68" height="296.25" as="geometry" />
        </mxCell>
        <mxCell id="zwFslJPwcFYUZ2XvNW6z-40" value="100K sites" style="endArrow=classic;html=1;rounded=0;entryX=0;entryY=0.5;entryDx=0;entryDy=0;" parent="1" target="zwFslJPwcFYUZ2XvNW6z-10" edge="1">
          <mxGeometry width="50" height="50" relative="1" as="geometry">
            <mxPoint x="348.1650589496249" y="324.25" as="sourcePoint" />
            <mxPoint x="380.2122186495177" y="290.5" as="targetPoint" />
          </mxGeometry>
        </mxCell>
        <mxCell id="zwFslJPwcFYUZ2XvNW6z-41" value="Consistent &lt;br&gt;Hashing scheme" style="text;html=1;align=center;verticalAlign=middle;resizable=0;points=[];autosize=1;strokeColor=none;fillColor=none;" parent="1" vertex="1">
          <mxGeometry x="236" y="407.275" width="110" height="40" as="geometry" />
        </mxCell>
      </root>
    </mxGraphModel>
  </diagram>
</mxfile>
